<svg width="283" height="243" viewBox="0 0 283 243" fill="none" xmlns="http://www.w3.org/2000/svg">
<g clip-path="url(#clip0_26885_42)">
<path d="M221.075 39.1806H201.846V203.539C201.846 206.117 201.339 208.671 200.355 211.053C199.371 213.436 197.928 215.601 196.109 217.424C194.291 219.247 192.131 220.694 189.755 221.681C187.379 222.667 184.832 223.175 182.26 223.175H35.25V223.363C35.25 225.942 35.7566 228.496 36.7409 230.878C37.7252 233.26 39.1679 235.425 40.9867 237.249C42.8054 239.072 44.9645 240.518 47.3408 241.505C49.7171 242.492 52.264 243 54.8361 243H221.075C223.647 243 226.193 242.492 228.57 241.505C230.946 240.518 233.105 239.072 234.924 237.249C236.743 235.425 238.185 233.26 239.17 230.878C240.154 228.496 240.661 225.942 240.661 223.363V58.8173C240.661 56.2386 240.154 53.6851 239.17 51.3027C238.185 48.9202 236.743 46.7555 234.924 44.932C233.105 43.1086 230.946 41.6622 228.57 40.6753C226.193 39.6885 223.647 39.1806 221.075 39.1806Z" fill="#F2F2F2"/>
<path d="M197.281 22.3203H8.12964C3.63976 22.3203 0 25.9694 0 30.4709V217.989C0 222.49 3.63976 226.14 8.12964 226.14H197.281C201.771 226.14 205.411 222.49 205.411 217.989V30.4709C205.411 25.9694 201.771 22.3203 197.281 22.3203Z" fill="#F2F2F2"/>
<path d="M19.5862 26.3585C15.4599 26.3585 11.5026 28.0019 8.58488 30.9271C5.66716 33.8524 4.028 37.8199 4.028 41.9569V206.503C4.028 210.64 5.66716 214.608 8.58488 217.533C11.5026 220.458 15.4599 222.101 19.5862 222.101H125.684C167.491 222.101 201.382 188.122 201.382 146.207V41.9569C201.382 37.8199 199.743 33.8524 196.826 30.9271C193.908 28.0019 189.951 26.3585 185.824 26.3585H19.5862Z" fill="white"/>
<path d="M209.906 136.786C209.056 137.022 208.165 137.07 207.295 136.927C206.425 136.784 205.596 136.453 204.866 135.958C204.136 135.462 203.522 134.813 203.066 134.056C202.611 133.299 202.325 132.452 202.229 131.573L173.179 122.777L173.63 114.123L208.056 124.823C209.544 124.77 210.999 125.265 212.146 126.216C213.294 127.167 214.053 128.506 214.281 129.981C214.509 131.456 214.189 132.963 213.383 134.217C212.577 135.471 211.339 136.385 209.906 136.786Z" fill="#FFB6B6"/>
<path d="M112.101 92.1448C109.16 89.6838 113.467 77.4859 112.306 73.9504C112.236 73.7364 112.17 73.5218 112.107 73.3064C111.976 72.8502 112.005 72.3624 112.191 71.9254L123.109 66.7764C125.954 67.9418 128.575 69.594 130.856 71.6593L147.723 90.9734L164.479 106.146L171.832 109.433L196.196 120.328L195.944 121.058L195.942 121.06L193.264 128.858L193.263 128.862L198.621 132.607L181.082 129.958L169.482 125.16L158.312 120.542C141.821 110.592 114.688 105.434 112.101 92.1448Z" fill="#C64132"/>
<path d="M189.838 181.651C189.516 181.798 189.157 181.842 188.809 181.778C188.461 181.713 188.142 181.543 187.894 181.29C187.646 181.037 187.481 180.714 187.422 180.364C187.364 180.015 187.414 179.655 187.565 179.335C187.541 179.158 187.524 179.031 187.5 178.854C187.472 178.825 187.443 178.795 187.415 178.766C184.532 175.834 179.546 177.866 179.495 181.983C179.45 185.636 179.052 189.438 179.97 192.913C180.376 194.449 181.045 195.903 181.946 197.21C176.236 191.77 171.759 185.164 168.818 177.837C168.082 175.998 167.449 174.119 166.923 172.209C166.492 170.643 166.131 169.061 165.84 167.463C164.269 158.791 164.772 149.87 167.308 141.43C169.234 139.092 170.398 136.219 170.644 133.197C170.736 132.109 170.671 131.013 170.45 129.944C170.186 130.093 167.719 126.158 167.825 125.813C167.202 125.379 166.391 125.365 165.738 124.96C162.491 122.945 159.791 124.609 159.832 129.104C157.253 132.039 158.306 134.765 161.333 136.577C163.258 137.73 164.33 139.907 166.148 141.239C166.092 141.431 166.03 141.621 165.975 141.813C164.965 145.334 164.303 148.947 163.996 152.598C163.079 149.054 160.82 145.247 158.689 143.064C156.263 140.576 152.947 138.993 149.88 137.232C146.196 135.117 141.722 138.483 142.861 142.584C142.872 142.623 142.883 142.663 142.894 142.702C143.265 142.752 143.634 142.815 144 142.89C144.461 142.988 144.883 143.223 145.208 143.564C145.534 143.906 145.75 144.338 145.826 144.805C145.903 145.271 145.837 145.75 145.637 146.178C145.438 146.606 145.114 146.964 144.708 147.205L144.667 147.229C145.211 148.279 145.835 149.285 146.531 150.24C147.968 161.416 155.081 162.839 163.199 159.77C163.413 159.79 163.623 159.811 163.835 159.827C164.043 164.785 164.892 169.695 166.363 174.433C167.239 177.225 168.339 179.942 169.652 182.556L169.6 182.465C167.813 179.69 165.126 177.617 161.992 176.598C157.353 175.126 152 176.049 147.312 175.251C145.056 174.867 143.308 177.237 144.466 179.217C144.485 179.248 144.503 179.28 144.522 179.311C145.175 179.315 145.827 179.359 146.474 179.444C146.845 179.494 147.213 179.556 147.58 179.632C148.041 179.73 148.462 179.965 148.788 180.306C149.114 180.648 149.329 181.08 149.406 181.546C149.482 182.013 149.417 182.492 149.217 182.92C149.018 183.348 148.694 183.706 148.288 183.947L148.247 183.971C148.216 183.989 148.191 184.004 148.161 184.022C150.037 185.932 152.228 187.504 154.636 188.669C159.803 196.853 167.152 194.873 173.627 189.284L173.631 189.282C175.888 192.538 178.476 195.55 181.354 198.27L194.069 193.161C194.058 193.001 194.04 192.838 194.025 192.68C192.878 193.227 191.668 193.631 190.423 193.884C190.902 192.344 191.378 190.795 191.857 189.256C191.87 189.226 191.88 189.195 191.889 189.163C192.13 188.377 192.378 187.594 192.619 186.807L192.619 186.807C191.916 184.976 190.982 183.243 189.838 181.651L189.838 181.651Z" fill="#F2F2F2"/>
<path d="M119.953 192.87L119.807 192.687C119.388 189.98 119.953 192.87 119.953 192.87Z" fill="#2F2E41"/>
<path d="M127.401 222.063H86.6682C83.5036 214.176 81.3069 208.534 81.3069 208.534C81.3069 208.534 80.7735 214.06 80.0123 222.063H43.1876C42.8429 200.315 42.3604 177.985 42.2016 170.893L112.884 172.472L119.915 181.41C119.939 181.56 119.963 181.724 119.993 181.91C120.277 183.727 124.104 203.222 127.401 222.063Z" fill="#2F2E41"/>
<path d="M126.783 69.1032L126.777 69.0905C126.552 68.6724 126.19 68.3447 125.753 68.1625C121.281 64.6837 116.384 63.0978 110.889 64.1824C109.989 61.4517 109.15 61.4517 109.15 61.4517L97.2309 57.505L95.5165 47.0058L66.1491 46.0092L63.4801 59.1111C63.4801 59.1111 47.0653 62.0612 47.0653 64.1946C47.0653 66.3279 49.8011 66.3279 47.0653 66.3279C44.3295 66.3279 43.5969 63.8898 41.2289 66.3279C41.026 66.5328 40.8119 66.7261 40.5875 66.907C40.5601 66.9314 40.5297 66.9527 40.5024 66.9771C37.8262 69.0875 35.7231 71.8395 34.387 74.9793C33.0509 78.1191 32.5248 81.5457 32.8573 84.943L37.9064 135.299L43.2959 189.033L117.053 192.111L121.993 146.387L127.018 70.3102C127.062 69.8934 126.981 69.4727 126.783 69.1032Z" fill="#C64132"/>
<path d="M5.7052 204.141C6.12631 205.204 6.55127 205.982 6.98003 206.367L150.026 206.671C150.455 206.287 150.88 205.508 151.301 204.446C156.304 191.827 146.866 178.143 133.322 178.117L23.6923 177.908C10.166 177.883 0.708792 191.539 5.7052 204.141Z" fill="white"/>
<path d="M150.142 206.976L150.026 206.976L6.86356 206.671L6.77732 206.594C6.33144 206.193 5.88839 205.428 5.42277 204.254C4.23857 201.318 3.80178 198.133 4.15179 194.986C4.50181 191.839 5.62763 188.828 7.42773 186.226C9.225 183.57 11.6436 181.395 14.4723 179.892C17.301 178.389 20.4537 177.604 23.6551 177.604H23.6928L133.322 177.812C136.535 177.819 139.698 178.613 142.534 180.127C145.37 181.641 147.793 183.827 149.592 186.496C151.39 189.106 152.513 192.123 152.861 195.276C153.208 198.428 152.769 201.618 151.584 204.559C151.118 205.733 150.675 206.498 150.229 206.898L150.142 206.976ZM16.5374 206.033L137.829 205.665C146.39 205.639 152.688 197.353 150.151 189.155C149.912 188.335 149.554 187.554 149.089 186.838C147.345 184.252 144.997 182.132 142.248 180.665C139.5 179.198 136.435 178.428 133.321 178.422L23.6916 178.213H23.6551C22.263 178.26 20.8903 178.554 19.6009 179.082C12.5195 181.769 7.78427 188.522 7.39054 196.103C7.38552 196.199 7.38052 196.296 7.37554 196.392C7.31372 197.595 7.48875 198.798 7.89062 199.932C8.2925 201.067 8.91336 202.111 9.71776 203.006C10.5222 203.9 11.4943 204.626 12.5788 205.144C13.6632 205.661 14.8387 205.959 16.0381 206.021C16.2044 206.03 16.3708 206.034 16.5374 206.033Z" fill="#E6E6E6"/>
<path d="M177.846 96.446C176.28 89.8491 176.541 83.3515 179.224 76.9856C179.252 76.5917 179.435 76.2252 179.732 75.9665C180.03 75.7077 180.418 75.5779 180.811 75.6054L195.47 76.6482C195.862 76.6766 196.228 76.86 196.486 77.1583C196.744 77.4566 196.874 77.8453 196.846 78.2392L195.469 97.6996C195.441 98.0935 195.258 98.46 194.96 98.7187C194.663 98.9775 194.275 99.1074 193.882 99.0799L179.223 98.037C178.83 98.0086 178.465 97.8252 178.206 97.5269C177.948 97.2286 177.819 96.8399 177.846 96.446Z" fill="#F2F2F2"/>
<path d="M179.387 90.6481C178.133 87.3973 178.935 82.9263 180.272 78.1372C180.299 77.7683 180.47 77.4251 180.749 77.1827C181.027 76.9404 181.39 76.8188 181.758 76.8446L194.357 77.7408C194.724 77.7674 195.067 77.9392 195.309 78.2185C195.55 78.4979 195.672 78.8619 195.646 79.2309L194.42 96.548C194.394 96.9168 194.222 97.2601 193.944 97.5024C193.665 97.7447 193.302 97.8663 192.934 97.8406L185.13 97.2854C183.491 97.1669 181.966 96.4016 180.889 95.1573C179.813 93.913 179.272 92.2914 179.387 90.6481Z" fill="white"/>
<path d="M188.109 91.4965C187.724 91.4302 187.339 91.3639 186.954 91.2977C187.132 90.8781 187.234 90.4306 187.257 89.9756C187.439 87.54 187.457 85.0812 187.554 82.6406C187.552 82.5514 187.524 82.4647 187.473 82.3912C187.422 82.3177 187.352 82.2604 187.27 82.2262C187.187 82.192 187.097 82.1825 187.009 82.1986C186.922 82.2148 186.841 82.256 186.776 82.3173C185.809 83.1199 184.843 83.9224 183.877 84.725C183.424 85.1006 184.072 85.7443 184.521 85.3715C185.215 84.7954 185.909 84.2194 186.602 83.6434C186.539 85.2425 186.475 86.8417 186.411 88.4408C186.381 89.2083 186.474 90.1403 186.161 90.8618C186.118 90.9591 186.062 91.0501 185.994 91.1323C185.568 91.0589 185.142 90.9855 184.716 90.9121C184.41 90.8593 184.02 91.1158 184.155 91.4744C184.448 92.2544 185.313 92.5008 186.054 92.2002C186.12 92.1708 186.183 92.1368 186.243 92.0986L187.866 92.3782C188.44 92.477 188.687 91.5961 188.109 91.4965Z" fill="#FB1212"/>
<path d="M262.96 161.97C261.394 155.374 261.655 148.876 264.338 142.51C264.366 142.116 264.549 141.75 264.846 141.491C265.144 141.232 265.532 141.102 265.925 141.13L280.584 142.173C280.976 142.201 281.342 142.385 281.6 142.683C281.858 142.981 281.988 143.37 281.96 143.764L280.583 163.224C280.555 163.618 280.372 163.985 280.074 164.243C279.777 164.502 279.389 164.632 278.996 164.604L264.337 163.562C263.944 163.533 263.579 163.35 263.321 163.051C263.062 162.753 262.933 162.364 262.96 161.97Z" fill="#F2F2F2"/>
<path d="M264.501 156.173C263.247 152.922 264.049 148.451 265.386 143.662C265.413 143.293 265.584 142.95 265.863 142.707C266.141 142.465 266.505 142.343 266.872 142.369L279.471 143.265C279.839 143.292 280.181 143.464 280.423 143.743C280.664 144.022 280.786 144.386 280.76 144.755L279.534 162.072C279.508 162.441 279.336 162.785 279.058 163.027C278.779 163.269 278.416 163.391 278.048 163.365L270.244 162.81C268.605 162.691 267.08 161.926 266.003 160.682C264.927 159.438 264.386 157.816 264.501 156.173Z" fill="white"/>
<path d="M272.725 152.871C272.892 152.792 273.051 152.696 273.198 152.583C273.588 152.261 273.877 151.831 274.029 151.347C274.181 150.862 274.189 150.344 274.053 149.855C273.462 147.678 270.864 147.665 269.071 147.927C268.493 148.011 268.739 148.892 269.314 148.808C270.522 148.632 272.42 148.489 273.069 149.813C273.217 150.124 273.27 150.472 273.221 150.813C273.171 151.154 273.022 151.472 272.791 151.728C272.516 152.005 272.153 152.178 271.765 152.217C271.389 152.053 270.981 151.977 270.571 151.994C270.149 152.014 269.913 152.63 270.341 152.846C270.72 153.035 271.137 153.134 271.56 153.134C271.911 153.304 272.204 153.573 272.402 153.909C272.6 154.246 272.695 154.633 272.674 155.023C272.634 155.289 272.542 155.544 272.403 155.775C272.265 156.005 272.082 156.206 271.866 156.365C271.65 156.525 271.405 156.64 271.144 156.705C270.883 156.769 270.613 156.782 270.347 156.741L270.336 156.74C269.763 156.624 269.518 157.505 270.094 157.621C270.866 157.767 271.665 157.599 272.314 157.155C272.963 156.711 273.41 156.026 273.555 155.251C273.563 155.209 273.57 155.167 273.576 155.125C273.612 154.709 273.554 154.291 273.407 153.901C273.26 153.51 273.027 153.158 272.725 152.871Z" fill="#FB1212"/>
<path d="M246.545 57.7408C244.979 51.1439 245.24 44.6463 247.923 38.2804C247.951 37.8865 248.134 37.52 248.432 37.2613C248.729 37.0025 249.117 36.8727 249.51 36.9002L264.169 37.943C264.562 37.9714 264.927 38.1549 265.185 38.4531C265.443 38.7514 265.573 39.1401 265.545 39.5341L264.168 58.9945C264.14 59.3883 263.957 59.7548 263.659 60.0135C263.362 60.2723 262.974 60.4022 262.581 60.3747L247.922 59.3318C247.529 59.3034 247.164 59.12 246.906 58.8217C246.648 58.5234 246.518 58.1347 246.545 57.7408Z" fill="#F2F2F2"/>
<path d="M248.086 51.9429C246.832 48.6921 247.634 44.2211 248.971 39.432C248.998 39.0631 249.169 38.7199 249.448 38.4776C249.727 38.2352 250.09 38.1136 250.458 38.1394L263.056 39.0356C263.424 39.0622 263.766 39.234 264.008 39.5134C264.249 39.7927 264.371 40.1568 264.345 40.5257L263.12 57.8428C263.093 58.2117 262.922 58.5549 262.643 58.7972C262.364 59.0396 262.001 59.1612 261.633 59.1354L253.829 58.5802C252.19 58.4618 250.665 57.6964 249.589 56.4521C248.512 55.2078 247.972 53.5862 248.086 51.9429Z" fill="white"/>
<path d="M255.833 43.2284C254.542 42.7791 253.106 43.803 252.959 45.1306C252.793 46.6353 254.407 47.8232 255.805 47.4142C256.367 47.2497 256.128 46.3671 255.563 46.5326C254.538 46.8323 253.445 45.7233 254.034 44.7318C254.168 44.4925 254.371 44.2997 254.617 44.1791C254.863 44.0585 255.14 44.0158 255.41 44.0568C255.64 44.1206 255.852 44.2375 256.028 44.3981C256.205 44.5587 256.341 44.7586 256.427 44.9816C256.929 46.1173 256.332 47.2703 255.54 48.0957C255.089 48.5665 254.559 48.9323 254.072 49.3614C253.836 49.5407 253.639 49.7676 253.495 50.0277C253.352 50.2877 253.264 50.5751 253.238 50.8713C253.25 51.2043 253.354 51.5275 253.537 51.8059C253.719 52.0843 253.975 52.3072 254.275 52.4507C255.052 52.8515 255.937 52.7241 256.764 52.5907C257.342 52.4974 257.096 51.6162 256.521 51.709C255.798 51.8257 254.715 52.0025 254.256 51.2463C253.864 50.5987 254.673 50.03 255.113 49.6855C256.221 48.8197 257.341 47.7016 257.507 46.2295C257.643 45.0235 257.032 43.6455 255.833 43.2284Z" fill="#FB1212"/>
<path d="M33.3757 132.308L40.5982 135.569C37.2028 138.33 32.0321 142.045 26.9678 143.764L18.9215 138.263C15.9242 126.676 17.7603 114.735 21.3624 104.638C23.3582 99.0276 26.0047 93.6717 29.2476 88.6806C28.9155 85.2833 29.4417 81.8569 30.7778 78.7171C32.1138 75.5774 34.2168 72.8253 36.8927 70.7147C36.9231 70.6903 36.9505 70.669 36.9778 70.6446C39.6431 72.9635 41.8203 75.7922 43.382 78.965C44.9437 82.1378 45.8585 85.591 46.0729 89.1225L46.234 91.7923L46.5562 97.0525L47.3739 110.487L37.677 125.603L33.3757 132.308Z" fill="#C64132"/>
<path d="M54.1545 189.66C54.2389 189.766 54.3462 189.851 54.4684 189.91C54.5905 189.968 54.7243 189.998 54.8597 189.998H104.208C104.343 189.998 104.476 189.967 104.598 189.909C104.719 189.851 104.827 189.766 104.912 189.661C104.997 189.556 105.057 189.433 105.089 189.302C105.121 189.17 105.123 189.033 105.095 188.901L104.329 185.253C104.298 185.104 104.229 184.965 104.13 184.85C104.032 184.734 103.906 184.645 103.764 184.591C103.661 184.551 103.552 184.53 103.442 184.53H55.6227C55.5125 184.53 55.4032 184.551 55.3005 184.591C55.1587 184.645 55.0327 184.734 54.934 184.85C54.8352 184.965 54.7668 185.104 54.7351 185.253L53.9691 188.901C53.9418 189.033 53.9443 189.17 53.9764 189.301C54.0085 189.432 54.0693 189.555 54.1545 189.66Z" fill="#2F2E41"/>
<path d="M35.2622 107.995V165.065C35.2628 165.792 35.5512 166.49 36.0642 167.004C36.5771 167.518 37.2726 167.807 37.998 167.808H122.352C123.078 167.807 123.773 167.518 124.286 167.004C124.799 166.49 125.087 165.792 125.088 165.065V107.995C125.086 107.268 124.797 106.572 124.285 106.058C123.772 105.545 123.077 105.256 122.352 105.255H37.998C37.2733 105.256 36.5784 105.545 36.0656 106.058C35.5528 106.572 35.2639 107.268 35.2622 107.995Z" fill="#3F3D56"/>
<path d="M69.621 156.611V187.867H91.4618V156.611C91.4622 156.386 91.3907 156.167 91.2577 155.986C91.1248 155.805 90.9374 155.671 90.7232 155.605C90.6222 155.572 90.5164 155.555 90.4101 155.556H70.6758C70.3966 155.556 70.1286 155.666 69.9308 155.864C69.7329 156.061 69.6215 156.33 69.621 156.61V156.611ZM78.1445 167.351C78.1503 166.734 78.3985 166.146 78.8351 165.712C79.2717 165.278 79.8615 165.035 80.476 165.035C81.0906 165.035 81.6804 165.278 82.117 165.712C82.5536 166.146 82.8018 166.734 82.8076 167.351V170.977C82.8044 171.595 82.5574 172.187 82.1205 172.623C81.6836 173.058 81.0923 173.303 80.476 173.303C79.8597 173.303 79.2685 173.058 78.8316 172.623C78.3947 172.187 78.1477 171.595 78.1445 170.977V167.351Z" fill="#2F2E41"/>
<path d="M82.3678 44.8391C92.8649 44.8391 101.375 36.3075 101.375 25.7831C101.375 15.2588 92.8649 6.7272 82.3678 6.7272C71.8706 6.7272 63.361 15.2588 63.361 25.7831C63.361 36.3075 71.8706 44.8391 82.3678 44.8391Z" fill="#FFB6B6"/>
<path d="M105.125 22.4495C103.076 23.0873 101.101 23.4633 99.768 21.7781C98.4354 20.0929 98.7836 18.166 96.8014 17.3536C95.2009 16.6957 93.3527 16.9777 91.7388 17.5887C91.4509 17.6961 91.1696 17.8169 90.895 17.9378C90.741 17.8035 90.587 17.676 90.4196 17.5551C89.1597 16.6568 87.6042 16.2772 86.0735 16.4943C87.1924 17.0361 88.113 17.9169 88.7053 19.012C88.1561 19.2872 87.5662 19.493 87.0378 19.7975C79.7792 23.9815 71.7069 25.6666 72.3657 18.683C74.5622 24.4838 72.8546 26.5517 69.6335 31.8489L69.5063 32.1577C69.8277 30.768 67.5678 30.7021 65.6156 31.1775C64.1737 31.5287 65.1068 34.8986 66.9549 37.22C62.8231 30.9828 56.6347 21.4598 61.9861 16.6823C62.7753 15.9776 63.2706 14.9835 63.4124 12.4391C63.4965 10.9305 66.0575 10.5525 67.4102 11.2239C67.606 8.95554 68.3967 6.77948 69.7022 4.91647C71.0076 3.05345 72.7814 1.56978 74.8434 0.615961C78.9819 -1.23035 83.1907 1.60983 87.6874 2.16014C90.1824 2.46548 92.0744 3.47292 92.1741 6.66516C92.2404 8.79099 95.4353 9.55212 97.5246 9.9281C98.8505 10.1631 100.344 10.0221 101.402 10.8613C102.627 11.8349 102.641 13.5469 102.634 15.1918C101.435 15.1575 100.253 15.4824 99.239 16.125C100.48 16.1563 101.68 16.5792 102.668 17.3335C102.687 17.3453 102.705 17.3588 102.721 17.3738C103.083 20.1399 102.935 20.7241 105.125 22.4495Z" fill="#2F2E41"/>
<path d="M118.833 115.366C126.26 113.052 134.211 115.554 141.678 113.419C143.396 112.948 145.019 112.183 146.478 111.159C147.722 110.213 148.89 109.171 149.971 108.042C152.217 105.814 154.657 103.475 158.032 103.501C162.476 103.535 165.889 106.845 168.851 109.768C169.27 110.181 169.915 109.535 169.496 109.121C166.774 106.435 163.833 103.602 159.958 102.801C158.22 102.414 156.406 102.565 154.755 103.234C153.323 103.886 152.015 104.783 150.889 105.884C149.696 106.982 148.595 108.176 147.386 109.256C146.123 110.407 144.669 111.328 143.089 111.975C139.665 113.342 135.91 113.507 132.269 113.467C127.698 113.417 123.019 113.105 118.591 114.484C118.032 114.658 118.27 115.541 118.833 115.366Z" fill="#3F3D56"/>
<path d="M170.48 103.606L172.763 107.641L173.867 109.593C174.064 109.94 174.265 110.285 174.457 110.635C174.574 110.849 174.83 111.237 174.586 111.441C174.37 111.546 174.129 111.584 173.892 111.549C173.489 111.55 173.086 111.541 172.684 111.537L170.42 111.514L165.741 111.466C165.622 111.471 165.51 111.521 165.428 111.606C165.346 111.691 165.3 111.805 165.3 111.924C165.3 112.042 165.346 112.156 165.428 112.241C165.51 112.327 165.622 112.377 165.741 112.381C168.457 112.408 171.175 112.466 173.892 112.464C174.366 112.509 174.84 112.379 175.225 112.098C175.413 111.91 175.538 111.667 175.581 111.404C175.625 111.141 175.584 110.871 175.466 110.632C175.199 110.046 174.89 109.48 174.544 108.936L173.55 107.179L171.267 103.144C171.204 103.044 171.104 102.972 170.989 102.944C170.875 102.916 170.753 102.934 170.651 102.994C170.549 103.054 170.474 103.151 170.442 103.265C170.41 103.379 170.424 103.501 170.48 103.606Z" fill="#3F3D56"/>
<path d="M200.655 113.493H179.672C179.557 113.493 179.443 113.471 179.336 113.427C179.23 113.384 179.133 113.32 179.052 113.238C178.97 113.157 178.906 113.061 178.861 112.954C178.817 112.848 178.794 112.734 178.794 112.619C178.793 112.504 178.816 112.39 178.859 112.283C178.903 112.176 178.967 112.08 179.048 111.998C179.129 111.916 179.226 111.851 179.332 111.807C179.438 111.763 179.551 111.74 179.666 111.74C179.668 111.74 179.67 111.74 179.672 111.74H200.655C200.77 111.739 200.884 111.761 200.991 111.805C201.097 111.849 201.194 111.913 201.275 111.994C201.357 112.075 201.421 112.172 201.466 112.278C201.51 112.384 201.533 112.498 201.533 112.614C201.534 112.729 201.511 112.843 201.468 112.95C201.424 113.056 201.36 113.153 201.279 113.235C201.198 113.316 201.101 113.381 200.995 113.425C200.889 113.47 200.776 113.493 200.661 113.493C200.659 113.493 200.657 113.493 200.655 113.493Z" fill="#E6E6E6"/>
<path d="M200.655 127.612H179.672C179.557 127.612 179.443 127.59 179.337 127.546C179.231 127.503 179.134 127.438 179.053 127.357C178.971 127.276 178.906 127.18 178.862 127.073C178.818 126.967 178.795 126.853 178.795 126.738C178.794 126.623 178.817 126.509 178.86 126.403C178.904 126.296 178.968 126.199 179.049 126.118C179.13 126.036 179.226 125.971 179.332 125.927C179.438 125.882 179.551 125.859 179.666 125.859C179.668 125.859 179.67 125.859 179.672 125.859H200.655C200.77 125.859 200.884 125.881 200.99 125.925C201.096 125.968 201.193 126.033 201.274 126.114C201.356 126.195 201.421 126.291 201.465 126.398C201.509 126.504 201.532 126.618 201.532 126.733C201.533 126.848 201.511 126.962 201.467 127.069C201.423 127.175 201.359 127.272 201.278 127.354C201.197 127.435 201.101 127.5 200.995 127.544C200.889 127.589 200.776 127.612 200.661 127.612C200.659 127.612 200.657 127.612 200.655 127.612Z" fill="#E6E6E6"/>
<path d="M221.255 120.552H179.672C179.557 120.553 179.443 120.531 179.336 120.487C179.23 120.443 179.133 120.379 179.052 120.298C178.97 120.217 178.906 120.12 178.861 120.014C178.817 119.908 178.794 119.794 178.794 119.679C178.793 119.563 178.816 119.449 178.859 119.343C178.903 119.236 178.967 119.139 179.048 119.058C179.129 118.976 179.226 118.911 179.332 118.867C179.438 118.822 179.551 118.8 179.666 118.799C179.668 118.799 179.67 118.799 179.672 118.799H221.255C221.37 118.799 221.483 118.821 221.59 118.865C221.696 118.908 221.793 118.973 221.874 119.054C221.956 119.135 222.021 119.231 222.065 119.338C222.109 119.444 222.132 119.558 222.133 119.673C222.133 119.788 222.111 119.903 222.067 120.009C222.023 120.116 221.959 120.213 221.878 120.294C221.797 120.376 221.701 120.441 221.595 120.485C221.489 120.529 221.375 120.552 221.26 120.552C221.258 120.553 221.256 120.553 221.255 120.552Z" fill="#E6E6E6"/>
<path d="M193.414 105.214C198.031 98.9392 205.915 96.2336 210.67 90.0779C211.775 88.6784 212.631 87.0982 213.201 85.4069C213.645 83.9062 213.97 82.3729 214.174 80.8211C214.668 77.6923 215.252 74.3591 217.986 72.3756C221.587 69.7636 226.292 70.4037 230.405 70.9992C230.523 71.0131 230.641 70.9807 230.735 70.9088C230.829 70.837 230.892 70.7312 230.91 70.6139C230.928 70.4967 230.899 70.377 230.831 70.2803C230.762 70.1835 230.659 70.1172 230.543 70.0954C226.763 69.5482 222.719 69.0121 219.124 70.6672C217.495 71.3881 216.123 72.5872 215.188 74.1063C214.42 75.4824 213.896 76.9819 213.639 78.5379C213.326 80.1303 213.145 81.7463 212.809 83.3345C212.472 85.0121 211.844 86.6173 210.953 88.0772C209.002 91.2114 206.074 93.5743 203.117 95.7046C199.405 98.3788 195.45 100.906 192.698 104.648C192.351 105.12 193.064 105.689 193.414 105.214Z" fill="#3F3D56"/>
<path d="M228.077 65.0675L232.3 66.9626L234.344 67.8796C234.707 68.0426 235.073 68.2003 235.434 68.3687C235.655 68.4721 236.091 68.6321 236.014 68.9416C235.961 69.1524 235.68 69.3221 235.519 69.4412C235.195 69.6809 234.865 69.9128 234.539 70.1484L232.701 71.4745L228.903 74.2151C228.81 74.2886 228.749 74.3954 228.734 74.5129C228.718 74.6304 228.748 74.7494 228.818 74.8449C228.888 74.9405 228.993 75.005 229.109 75.0249C229.226 75.0448 229.345 75.0186 229.443 74.9518C231.648 73.3608 233.872 71.793 236.059 70.1778C236.468 69.933 236.773 69.5466 236.917 69.0916C236.958 68.8282 236.915 68.5585 236.795 68.3209C236.674 68.0832 236.482 67.8895 236.246 67.7671C235.684 67.4541 235.101 67.1805 234.501 66.9485L232.662 66.1232L228.439 64.2281C228.328 64.1847 228.206 64.186 228.097 64.2316C227.987 64.2772 227.9 64.3636 227.853 64.4725C227.806 64.5814 227.803 64.7043 227.845 64.8154C227.887 64.9264 227.97 65.0168 228.077 65.0675Z" fill="#3F3D56"/>
<path d="M266.011 69.9114H245.027C244.912 69.9119 244.798 69.8897 244.692 69.846C244.586 69.8023 244.489 69.7381 244.407 69.6569C244.326 69.5757 244.261 69.4793 244.217 69.373C244.172 69.2667 244.149 69.1527 244.149 69.0375C244.149 68.9223 244.171 68.8081 244.215 68.7016C244.258 68.595 244.323 68.4982 244.404 68.4165C244.485 68.3349 244.581 68.27 244.687 68.2257C244.793 68.1814 244.907 68.1585 245.022 68.1582C245.024 68.1582 245.025 68.1582 245.027 68.1582H266.011C266.126 68.1578 266.24 68.18 266.346 68.2237C266.452 68.2673 266.549 68.3316 266.631 68.4128C266.712 68.4939 266.777 68.5904 266.821 68.6967C266.866 68.803 266.889 68.917 266.889 69.0322C266.889 69.1474 266.867 69.2615 266.823 69.3681C266.78 69.4746 266.715 69.5715 266.634 69.6532C266.553 69.7348 266.457 69.7997 266.351 69.844C266.245 69.8883 266.131 69.9112 266.016 69.9114C266.014 69.9114 266.013 69.9114 266.011 69.9114Z" fill="#FB1212"/>
<path d="M209.525 132.891C214.142 139.165 222.026 141.871 226.78 148.027C227.886 149.426 228.742 151.006 229.312 152.698C229.756 154.198 230.081 155.732 230.285 157.283C230.779 160.412 231.362 163.746 234.097 165.729C237.698 168.341 242.403 167.701 246.516 167.105C246.634 167.091 246.752 167.124 246.846 167.196C246.94 167.268 247.003 167.373 247.021 167.491C247.039 167.608 247.01 167.728 246.942 167.824C246.873 167.921 246.77 167.987 246.654 168.009C242.874 168.556 238.83 169.093 235.235 167.437C233.606 166.717 232.234 165.517 231.299 163.998C230.531 162.622 230.007 161.123 229.75 159.567C229.437 157.974 229.256 156.358 228.919 154.77C228.582 153.093 227.954 151.487 227.064 150.027C225.113 146.893 222.185 144.53 219.228 142.4C215.516 139.726 211.561 137.198 208.809 133.457C208.461 132.985 209.175 132.415 209.525 132.891Z" fill="#3F3D56"/>
<path d="M244.188 173.037L248.411 171.142L250.455 170.225C250.818 170.062 251.184 169.904 251.545 169.736C251.766 169.633 252.202 169.473 252.125 169.163C252.072 168.952 251.791 168.783 251.63 168.663C251.306 168.424 250.976 168.192 250.65 167.956L248.812 166.63L245.014 163.89C244.921 163.816 244.86 163.709 244.844 163.592C244.829 163.474 244.859 163.355 244.929 163.26C244.999 163.164 245.103 163.1 245.22 163.08C245.337 163.06 245.456 163.086 245.554 163.153C247.759 164.744 249.983 166.312 252.17 167.927C252.579 168.172 252.884 168.558 253.028 169.013C253.069 169.276 253.026 169.546 252.905 169.784C252.785 170.021 252.593 170.215 252.357 170.338C251.795 170.651 251.212 170.924 250.612 171.156L248.773 171.981L244.55 173.877C244.439 173.92 244.317 173.919 244.208 173.873C244.098 173.827 244.011 173.741 243.964 173.632C243.917 173.523 243.914 173.4 243.956 173.289C243.998 173.178 244.081 173.088 244.188 173.037Z" fill="#3F3D56"/>
<path d="M282.122 170.789H261.138C260.906 170.79 260.684 170.698 260.519 170.534C260.355 170.371 260.262 170.148 260.261 169.916C260.26 169.684 260.351 169.461 260.514 169.295C260.677 169.13 260.898 169.037 261.13 169.036C261.133 169.036 261.135 169.036 261.138 169.036H282.122C282.354 169.035 282.576 169.126 282.741 169.29C282.905 169.454 282.998 169.676 282.999 169.908C283 170.141 282.909 170.364 282.746 170.529C282.583 170.694 282.361 170.787 282.13 170.789C282.127 170.789 282.124 170.789 282.122 170.789Z" fill="#FB1212"/>
<path d="M42.9118 136.715C42.5145 137.504 41.951 138.197 41.2602 138.747C40.5693 139.296 39.7677 139.689 38.9107 139.897C38.0538 140.105 37.1619 140.124 36.2968 139.953C35.4318 139.782 34.6141 139.424 33.9005 138.905L12.0459 149.332L10.5812 143.19L32.8379 130.041C33.7991 128.901 35.1437 128.155 36.617 127.943C38.0903 127.732 39.5899 128.069 40.8316 128.892C42.0734 129.714 42.971 130.965 43.3544 132.407C43.7378 133.849 43.5803 135.382 42.9118 136.715Z" fill="#FFB6B6"/>
<path d="M34.4902 105.043L19.1119 136.546L25.611 133.593L30.1342 131.536L32.4018 140.173C32.4018 140.173 30.9002 141.636 28.5322 143.559C25.1368 146.32 19.9661 150.035 14.9018 151.754C10.9379 153.101 7.04393 153.226 4.11965 150.715C-1.431 145.948 3.99502 127.019 9.23866 112.607C12.7496 102.955 16.1755 95.3329 16.1755 95.3329C16.1755 85.1537 35.8789 70.5169 39.5358 68.5146C41.6241 67.3748 42.2016 69.0348 42.2016 69.0348L30.7421 85.8547L34.168 99.7825L35.1376 103.717L34.4902 105.043Z" fill="#C64132"/>
</g>
<defs>
<clipPath id="clip0_26885_42">
<rect width="283" height="243" fill="white"/>
</clipPath>
</defs>
</svg>
